<svg width="1920" height="1181" viewBox="0 0 1920 1181" fill="none" xmlns="http://www.w3.org/2000/svg">
<rect y="101" width="1920" height="1080" fill="white"/>
<path fill-rule="evenodd" clip-rule="evenodd" d="M1601.39 418.928C1663.97 426.58 1705.19 478.859 1751.74 521.378C1802 567.286 1875.82 603.7 1878.17 671.732C1880.53 740.415 1818.82 793.483 1762.46 832.807C1715.79 865.37 1658.29 865.791 1601.39 864.844C1545.88 863.92 1489.5 861.494 1445.58 827.533C1395.72 788.969 1358.23 734.428 1351.67 671.732C1344.43 602.579 1360.28 528.953 1409.14 479.487C1458.22 429.798 1532.06 410.451 1601.39 418.928Z" stroke="#18181B" stroke-opacity="0.5"/>
<path fill-rule="evenodd" clip-rule="evenodd" d="M1603.03 441.466C1659.07 448.331 1695.98 495.234 1737.66 533.38C1782.67 574.567 1848.77 607.237 1850.87 668.273C1852.99 729.893 1797.73 777.504 1747.26 812.784C1705.47 841.999 1653.98 842.377 1603.03 841.527C1553.33 840.698 1502.84 838.521 1463.52 808.052C1418.87 773.455 1385.3 724.522 1379.42 668.273C1372.94 606.232 1387.13 540.177 1430.89 495.797C1474.84 451.218 1540.95 433.861 1603.03 441.466Z" stroke="#18181B" stroke-opacity="0.5"/>
<path fill-rule="evenodd" clip-rule="evenodd" d="M862.058 44.9851C911.72 6.14513 977.836 13.9629 1040.82 11.1118C1108.82 8.0331 1186.77 -18.4195 1236.53 28.0303C1286.77 74.9246 1280.66 156.084 1268.61 223.744C1258.64 279.772 1218.27 320.729 1177.37 360.295C1137.47 398.891 1095.88 437.041 1040.82 444.08C978.288 452.073 913.214 440.014 864.24 400.323C810.221 356.544 769.369 293.273 768.943 223.744C768.515 153.901 807.042 88.0133 862.058 44.9851Z" stroke="#18181B" stroke-opacity="0.5"/>
<path fill-rule="evenodd" clip-rule="evenodd" d="M879.158 59.7593C923.636 24.9895 982.902 32.0542 1039.35 29.5524C1100.3 26.8517 1170.14 3.21002 1214.78 44.886C1259.85 86.9609 1254.45 159.699 1243.71 220.333C1234.81 270.542 1198.67 307.217 1162.04 342.645C1126.31 377.204 1089.08 411.362 1039.72 417.623C983.686 424.733 925.35 413.869 881.42 378.251C832.965 338.966 796.295 282.22 795.852 219.901C795.408 157.3 829.884 98.2776 879.158 59.7593Z" stroke="#18181B" stroke-opacity="0.5"/>
<path fill-rule="evenodd" clip-rule="evenodd" d="M554.104 351.958C578.767 409.98 554.104 471.82 540.557 533.393C525.93 599.876 531.307 682.016 473.56 718.06C415.261 754.449 338.449 727.541 276.212 698.392C224.676 674.255 195.561 624.668 167.93 574.916C140.976 526.384 114.889 476.345 122.342 421.333C130.805 358.865 159.296 299.13 210.31 262.097C266.578 221.25 338.266 198.166 405.537 215.749C473.11 233.412 526.782 287.68 554.104 351.958Z" stroke="#18181B" stroke-opacity="0.5"/>
<path fill-rule="evenodd" clip-rule="evenodd" d="M535.408 364.651C557.481 416.613 535.318 472.031 523.124 527.203C509.959 586.774 514.718 660.357 462.908 692.691C410.602 725.334 341.741 701.286 285.954 675.219C239.757 653.634 213.685 609.232 188.945 564.681C164.811 521.223 141.455 476.415 148.18 427.125C155.816 371.155 181.409 317.619 227.183 284.404C277.67 247.768 341.974 227.035 402.284 242.736C462.866 258.509 510.955 307.087 535.408 364.651Z" stroke="#18181B" stroke-opacity="0.5"/>
<path fill-rule="evenodd" clip-rule="evenodd" d="M963.471 867.199C944.629 913.902 895.77 934.9 853.339 962.027C807.527 991.316 764.168 1040.75 711.193 1028.49C657.71 1016.11 629.523 957.531 610.834 905.914C595.358 863.171 606.921 818.718 619.416 775.01C631.604 732.373 645.132 689.375 680.415 662.512C720.479 632.009 770.311 614.361 820.042 622.258C874.896 630.968 928.426 658.421 956.49 706.349C984.681 754.493 984.345 815.46 963.471 867.199Z" stroke="#18181B" stroke-opacity="0.5"/>
<path fill-rule="evenodd" clip-rule="evenodd" d="M945.742 863.808C928.86 905.625 885.039 924.408 846.989 948.684C805.906 974.895 767.032 1019.14 719.505 1008.14C671.523 997.038 646.212 944.561 629.425 898.327C615.524 860.041 625.877 820.236 637.067 781.099C647.982 742.921 660.099 704.42 691.737 680.378C727.663 653.077 772.358 637.294 816.973 644.388C866.183 652.212 914.214 676.821 939.41 719.755C964.72 762.883 964.443 817.483 945.742 863.808Z" stroke="#18181B" stroke-opacity="0.5"/>
</svg>
