<svg className="overflow-x-hidden" width="530" height="450" viewBox="0 0 530 450" fill="none" xmlns="http://www.w3.org/2000/svg">
<path fill-rule="evenodd" clip-rule="evenodd" d="M277.544 446.808C214.964 439.156 173.741 386.877 127.19 344.358C76.928 298.45 3.10441 262.036 0.762351 194.004C-1.60214 125.321 60.1072 72.2535 116.469 32.9295C163.141 0.365981 220.642 -0.0550707 277.544 0.891976C333.051 1.81582 389.429 4.24268 433.345 38.2035C483.212 76.767 520.699 131.308 527.263 194.004C534.504 263.157 518.651 336.783 469.788 386.249C420.705 435.938 346.872 455.285 277.544 446.808Z" stroke="white" stroke-opacity="0.15"/>
<path fill-rule="evenodd" clip-rule="evenodd" d="M275.9 424.27C219.863 417.405 182.951 370.502 141.267 332.356C96.2606 291.169 30.1562 258.499 28.059 197.463C25.9418 135.843 81.1986 88.2323 131.667 52.9521C173.459 23.7372 224.948 23.3595 275.9 24.2091C325.603 25.038 376.086 27.2153 415.41 57.6838C460.063 92.2817 493.63 141.214 499.508 197.463C505.992 259.504 491.796 325.559 448.043 369.939C404.092 414.518 337.978 431.875 275.9 424.27Z" stroke="white" stroke-opacity="0.15"/>
</svg>
