<svg width="530" height="450" viewBox="0 0 530 450" fill="none" xmlns="http://www.w3.org/2000/svg">
<g clip-path="url(#clip0_13_3)">
<path fill-rule="evenodd" clip-rule="evenodd" d="M252.456 3.19186C315.036 10.8439 356.259 63.1229 402.81 105.642C453.072 151.55 526.896 187.964 529.238 255.996C531.602 324.679 469.893 377.746 413.531 417.07C366.859 449.634 309.358 450.055 252.456 449.108C196.949 448.184 140.571 445.757 96.655 411.796C46.788 373.233 9.30099 318.692 2.73698 255.996C-4.50402 186.843 11.349 113.217 60.212 63.7509C109.295 14.0619 183.128 -5.28514 252.456 3.19186Z" stroke="#18181b" stroke-opacity="0.15"/>
<path fill-rule="evenodd" clip-rule="evenodd" d="M254.1 25.7299C310.137 32.5949 347.049 79.4979 388.733 117.644C433.739 158.831 499.844 191.501 501.941 252.537C504.058 314.157 448.801 361.768 398.333 397.048C356.541 426.263 305.052 426.64 254.1 425.791C204.397 424.962 153.914 422.785 114.59 392.316C69.937 357.718 36.37 308.786 30.492 252.537C24.008 190.496 38.204 124.441 81.957 80.0609C125.908 35.4819 192.022 18.1249 254.1 25.7299Z" stroke="#18181b" stroke-opacity="0.15"/>
</g>
<defs>
<clipPath id="clip0_13_3">
<rect width="530" height="450" fill="white" transform="translate(530 450) rotate(180)"/>
</clipPath>
</defs>
</svg>
