<svg width="2175" height="1932" viewBox="0 0 2175 1932" fill="none" xmlns="http://www.w3.org/2000/svg">
<path fill-rule="evenodd" clip-rule="evenodd" d="M2062.21 798.075C2116.96 1102.58 2273.19 1448.49 2080.66 1690.7C1883.05 1939.32 1497.74 1967.72 1187.84 1898.12C924.699 1839.02 820.14 1546.78 622.565 1363.23C409.799 1165.57 35.6227 1086.7 3.72098 798.075C-28.7302 504.483 234.949 254.316 482.108 92.4916C687.691 -42.1107 942.603 7.07642 1187.84 22.7869C1409.07 36.9591 1642.73 30.4093 1808.58 177.468C1982.43 331.612 2021.1 569.427 2062.21 798.075Z" stroke="white" stroke-opacity="0.15" stroke-width="2"/>
<path fill-rule="evenodd" clip-rule="evenodd" d="M1995.88 809.56C2046.87 1093.23 2192.38 1415.49 2013.06 1641.14C1829 1872.75 1470.11 1899.21 1181.46 1834.37C936.362 1779.31 838.972 1507.06 654.945 1336.06C456.768 1151.92 108.249 1078.44 78.5346 809.56C48.3085 536.048 293.907 302.991 524.119 152.234C715.605 26.8378 953.038 72.6608 1181.46 87.2968C1387.52 100.5 1605.16 94.3979 1759.64 231.398C1921.56 375 1957.58 596.55 1995.88 809.56Z" stroke="white" stroke-opacity="0.15" stroke-width="2"/>
</svg>
