<svg width="1135" height="1442" viewBox="0 0 1135 1442" fill="none" xmlns="http://www.w3.org/2000/svg">
<path opacity="0.0416667" fill-rule="evenodd" clip-rule="evenodd" d="M293.803 530.588C249.102 485.049 96.6943 529.012 114.686 467.789C136.442 393.758 264.134 431.812 333.038 397.082C350.287 388.387 340.851 354.477 357.817 345.242C377.602 334.473 415.797 367.791 424.791 347.14C449.289 290.891 407.844 219.363 436.311 165.015C457.353 124.841 509.029 98.7366 554.368 99.7536C597.024 100.71 623.56 147.907 660.041 170.033C697.628 192.83 754.829 193.945 774.493 233.261C795.372 275.005 776.17 327.352 760.764 371.41C747.591 409.083 721.318 440.995 692.28 468.373C669.718 489.646 637.688 496.225 611.23 512.395C595.905 521.761 571.344 526.461 568.277 544.157C558.691 599.472 611.625 666.87 576.825 710.923C553.331 740.665 497.055 692.855 475.366 661.772C448.458 623.212 493.783 529.175 446.964 524.825C380.386 518.639 354.828 641.85 288.01 644.365C249.736 645.805 320.633 557.921 293.803 530.588Z" stroke="#18181b" stroke-width="4"/>
<path opacity="0.0833333" fill-rule="evenodd" clip-rule="evenodd" d="M316.608 527.571C276.046 478.309 120.387 508.821 143.646 449.399C171.772 377.546 295.66 426.584 367.329 397.992C385.271 390.834 378.826 356.23 396.532 348.509C417.18 339.505 452.326 376.026 463.086 356.237C492.393 302.337 457.34 227.469 490.435 175.809C514.899 137.622 568.653 116.121 613.731 121.085C656.141 125.756 678.463 175.086 712.877 200.307C748.334 226.293 805.219 232.39 821.383 273.27C838.544 316.674 814.852 367.149 795.665 409.696C779.259 446.078 750.305 475.579 718.991 500.322C694.661 519.547 662.18 523.31 634.412 537.113C618.33 545.107 593.452 547.649 588.855 565.01C574.485 619.279 621.343 691.034 582.836 731.886C556.838 759.467 504.944 706.934 486.046 674.08C462.602 633.321 515.95 543.592 469.688 535.178C403.903 523.213 367.703 643.728 300.921 640.409C262.667 638.508 340.953 557.138 316.608 527.571Z" stroke="#18181b" stroke-width="4"/>
<path opacity="0.125" fill-rule="evenodd" clip-rule="evenodd" d="M339.134 526.969C303.021 474.359 145.294 491.189 173.644 434.021C207.925 364.892 327.068 424.541 400.956 402.304C419.453 396.737 416.049 361.703 434.361 355.555C455.715 348.385 487.544 387.83 499.988 369.054C533.881 317.913 505.487 240.275 542.958 191.696C570.657 155.786 626.08 139.052 670.554 147.927C712.396 156.276 730.334 207.364 762.419 235.488C795.475 264.465 851.613 275.497 864.152 317.63C877.465 362.365 849.465 410.583 826.642 451.296C807.127 486.109 775.713 512.975 742.361 534.895C716.448 551.926 683.762 552.843 654.898 564.173C638.18 570.735 613.175 571.099 607.083 587.994C588.037 640.804 628.463 716.37 586.542 753.711C558.24 778.921 511.122 722.065 495.159 687.688C475.356 645.041 536.322 560.303 490.969 547.889C426.477 530.236 379.912 647.138 313.672 638.011C275.73 632.784 360.81 558.546 339.134 526.969Z" stroke="#18181b" stroke-width="4"/>
<path opacity="0.166667" fill-rule="evenodd" clip-rule="evenodd" d="M361.173 528.75C329.782 473.193 171.188 476.212 204.413 421.732C244.588 355.854 358.08 425.66 433.624 409.947C452.537 406.014 452.198 370.817 470.977 366.287C492.874 361.006 521.144 403.075 535.177 385.455C573.399 337.463 551.879 257.645 593.442 212.517C624.165 179.158 680.836 167.318 724.367 180.035C765.322 191.999 778.739 244.456 808.25 275.27C838.656 307.018 893.619 322.9 902.438 365.966C911.801 411.691 879.705 457.285 853.421 495.854C830.946 528.834 797.309 552.859 762.175 571.789C734.876 586.497 702.234 584.562 672.492 593.333C655.266 598.413 630.325 596.596 622.783 612.896C599.207 663.845 632.893 742.647 587.877 776.192C557.485 798.839 515.502 738.093 502.596 702.456C486.585 658.245 554.705 579.143 510.607 562.824C447.898 539.617 391.321 652.015 326.13 637.151C288.787 628.636 380.014 562.096 361.173 528.75Z" stroke="#18181b" stroke-width="4"/>
<path opacity="0.208333" fill-rule="evenodd" clip-rule="evenodd" d="M382.517 532.862C356.088 474.78 197.835 463.965 235.681 412.588C281.445 350.463 388.421 429.895 465.048 420.826C484.231 418.555 486.961 383.463 506.063 380.587C528.337 377.235 552.833 421.607 568.349 405.277C610.607 360.799 596.126 279.41 641.464 238.075C674.978 207.521 732.465 200.665 774.722 217.128C814.478 232.616 823.272 286.043 849.986 319.312C877.509 353.589 930.878 374.201 935.91 417.871C941.253 464.238 905.305 506.861 875.759 542.993C850.495 573.888 814.893 594.891 778.242 610.686C749.765 622.959 717.417 618.187 687.023 624.332C669.42 627.892 644.732 623.908 635.798 639.488C607.871 688.189 634.561 769.627 586.793 799.12C554.543 819.033 518.014 754.859 508.263 718.233C496.166 672.794 570.921 599.931 528.413 579.83C467.965 551.246 401.808 658.286 338.16 637.795C301.702 626.059 398.38 567.723 382.517 532.862Z" stroke="#18181b" stroke-width="4"/>
<path opacity="0.25" fill-rule="evenodd" clip-rule="evenodd" d="M402.967 539.235C381.701 479.071 224.992 454.504 267.173 406.621C318.177 348.721 417.823 437.174 494.948 434.818C514.256 434.228 520.035 399.507 539.315 398.308C561.796 396.909 582.332 443.247 599.211 428.332C645.186 387.706 637.853 305.365 686.621 268.139C722.67 240.622 780.536 238.803 821.198 258.886C859.453 277.78 863.557 331.769 887.269 367.24C911.7 403.785 963.07 428.971 964.276 472.913C965.557 519.57 926.031 558.897 893.449 592.316C865.589 620.892 828.291 638.712 790.403 651.253C760.965 660.997 729.156 653.424 698.342 656.897C680.496 658.908 656.249 652.788 645.991 667.53C613.926 713.611 633.416 797.066 583.26 822.284C549.397 839.31 518.6 772.196 512.078 734.86C503.988 688.54 584.809 622.469 544.214 598.74C486.488 564.996 411.253 665.863 349.633 639.903C314.337 625.033 415.732 575.346 402.967 539.235Z" stroke="#18181b" stroke-width="4"/>
<path opacity="0.291667" fill-rule="evenodd" clip-rule="evenodd" d="M422.329 547.783C406.387 485.994 252.416 447.863 298.61 403.839C354.466 350.604 446.023 447.405 523.061 451.78C542.347 452.875 551.13 418.79 570.44 419.275C592.959 419.842 609.377 467.793 627.492 454.406C676.833 417.942 676.705 335.274 728.532 302.441C766.842 278.17 824.646 281.401 863.403 304.952C899.865 327.108 899.248 381.25 919.779 418.652C940.931 457.188 989.911 486.754 987.283 530.635C984.493 577.225 941.689 612.958 906.319 643.411C876.074 669.45 837.365 683.951 798.528 693.142C768.353 700.283 737.324 689.966 706.325 690.741C688.371 691.189 664.75 682.979 653.247 696.771C617.287 739.882 629.43 824.718 577.266 845.468C542.049 859.478 517.218 789.936 513.975 752.173C509.953 705.324 596.224 646.549 557.853 619.372C503.287 580.725 419.547 674.651 360.424 643.42C326.558 625.53 431.898 584.869 422.329 547.783Z" stroke="#18181b" stroke-width="4"/>
<path opacity="0.333333" fill-rule="evenodd" clip-rule="evenodd" d="M440.418 558.402C429.922 495.459 279.86 444.054 329.715 404.223C389.998 356.059 472.77 460.472 549.133 471.544C568.25 474.316 579.97 441.126 599.166 443.293C621.549 445.819 633.726 495.02 652.939 483.262C705.269 451.237 712.347 368.873 766.838 340.681C807.117 319.842 864.42 328.098 900.977 354.937C935.37 380.187 930.036 434.069 947.229 473.119C964.942 513.351 1011.16 547.074 1004.72 590.559C997.876 636.729 952.121 668.595 914.231 695.849C881.832 719.153 842.006 730.225 802.516 735.996C771.834 740.48 741.822 727.498 710.874 725.568C692.949 724.45 670.133 714.212 657.471 726.949C617.892 766.762 622.594 852.333 568.82 868.459C532.516 879.346 513.84 807.904 513.901 770.002C513.977 722.981 605.043 671.948 569.186 641.531C518.196 598.276 426.589 684.545 370.413 648.28C338.235 627.507 446.718 596.181 440.418 558.402Z" stroke="#18181b" stroke-width="4"/>
<path opacity="0.375" fill-rule="evenodd" clip-rule="evenodd" d="M457.057 570.975C452.087 507.357 307.077 443.068 360.213 407.734C424.465 365.007 497.822 476.237 572.929 493.922C591.732 498.35 606.3 466.307 625.233 470.139C647.311 474.607 655.154 524.681 675.318 514.642C730.241 487.3 744.47 405.866 801.211 382.531C843.153 365.282 899.518 378.502 933.597 408.424C965.658 436.576 955.649 489.788 969.373 530.187C983.512 571.81 1026.61 609.433 1016.41 652.191C1005.57 697.589 957.209 725.346 917.088 749.194C882.781 769.585 842.142 777.144 802.299 779.452C771.343 781.245 742.577 765.697 711.914 761.076C694.155 758.4 672.319 746.213 658.595 757.798C615.696 794.01 612.922 879.665 557.948 891.042C520.832 898.724 508.455 825.926 511.819 788.174C515.993 741.339 611.16 698.437 578.09 665.01C531.065 617.475 432.287 695.432 379.485 654.409C349.24 630.911 460.041 609.159 457.057 570.975Z" stroke="#18181b" stroke-width="4"/>
<path opacity="0.416667" fill-rule="evenodd" clip-rule="evenodd" d="M472.083 585.366C472.676 521.557 333.821 444.875 389.834 414.306C457.566 377.342 520.949 494.542 594.229 518.706C612.575 524.756 629.88 494.105 648.407 499.572C670.012 505.947 673.46 556.514 694.423 548.271C751.519 525.82 772.792 445.936 831.351 427.635C874.637 414.107 929.635 432.189 960.976 464.968C990.462 495.806 975.853 547.944 986.003 589.385C996.462 632.082 1036.12 673.318 1022.22 715.024C1007.47 759.304 956.877 782.741 914.83 803.001C878.876 820.325 837.734 824.314 797.841 823.14C766.846 822.228 739.545 804.232 709.402 796.957C691.943 792.743 671.252 778.699 656.571 789.044C610.679 821.379 600.451 906.467 544.694 913.009C507.05 917.427 501.064 843.827 507.706 806.512C515.946 760.219 614.49 725.774 584.46 689.592C541.756 638.14 436.56 707.192 387.534 661.722C359.452 635.677 471.727 623.665 472.083 585.366Z" stroke="#18181b" stroke-width="4"/>
<path opacity="0.458333" fill-rule="evenodd" clip-rule="evenodd" d="M485.342 601.43C491.494 537.915 359.85 449.422 418.315 423.852C489.011 392.931 541.938 515.209 612.833 545.669C630.582 553.294 650.493 524.268 668.473 531.329C689.439 539.563 688.468 590.238 710.069 583.854C768.905 566.464 797.059 488.738 856.99 475.611C901.29 465.907 954.504 488.713 982.868 524.099C1009.55 557.39 990.457 608.056 996.957 650.224C1003.65 693.67 1039.57 738.206 1022.09 778.541C1003.53 821.368 951.089 840.306 907.436 856.824C870.11 870.949 828.776 871.336 789.137 866.69C758.34 863.08 732.711 842.773 703.316 832.898C686.292 827.179 666.903 811.385 651.376 820.411C602.841 848.623 585.236 932.496 529.121 934.154C491.235 935.274 491.687 861.433 501.555 824.838C513.799 779.439 614.97 753.715 588.207 715.053C550.15 660.075 439.336 719.695 394.46 670.126C368.755 641.733 481.649 639.552 485.342 601.43Z" stroke="#18181b" stroke-width="4"/>
<path opacity="0.5" fill-rule="evenodd" clip-rule="evenodd" d="M496.696 619.004C508.36 556.267 384.93 456.638 445.401 436.26C518.522 411.619 560.591 538.044 628.562 574.567C645.578 583.71 667.943 556.53 685.239 565.131C705.409 575.161 700.024 625.559 722.099 621.081C782.227 608.886 817.048 533.909 877.895 526.055C922.873 520.249 973.896 547.606 999.069 585.33C1022.75 620.82 999.311 669.629 1002.11 712.203C1005 756.068 1036.89 803.564 1015.96 842.222C993.746 883.268 939.851 897.564 894.925 910.215C856.509 921.032 815.299 917.816 776.216 909.733C745.85 903.452 722.089 880.989 693.667 868.59C677.205 861.408 659.267 843.985 643.013 851.623C592.203 875.498 567.355 957.517 511.309 954.278C473.47 952.091 480.355 878.571 493.376 842.976C509.529 798.816 612.558 782.007 589.267 741.16C556.146 683.074 440.557 732.81 400.173 679.518C377.04 648.992 489.694 656.659 496.696 619.004Z" stroke="#18181b" stroke-width="4"/>
<path opacity="0.541667" fill-rule="evenodd" clip-rule="evenodd" d="M506.02 637.918C523.108 576.436 408.831 466.428 470.847 451.399C545.838 433.224 576.728 562.835 641.257 605.143C657.412 615.734 682.061 590.607 698.542 600.683C717.76 612.432 708.003 662.169 730.385 659.632C791.347 652.724 832.57 581.068 893.87 578.546C939.182 576.683 987.627 608.383 1009.42 648.156C1029.92 685.576 1002.31 732.156 1001.39 774.812C1000.44 818.761 1028.07 868.856 1003.86 905.544C978.146 944.497 923.211 954.042 877.353 962.729C838.141 970.157 797.367 963.361 759.138 951.902C729.435 942.999 707.722 918.55 680.489 903.721C664.716 895.132 648.365 876.212 631.506 882.404C578.809 901.76 546.907 981.301 491.356 973.19C453.852 967.713 467.119 895.073 483.192 860.748C503.133 818.165 607.234 810.399 587.592 767.677C559.66 706.926 440.176 746.398 404.59 689.789C384.206 657.363 495.763 674.82 506.02 637.918Z" stroke="#18181b" stroke-width="4"/>
<path opacity="0.583333" fill-rule="evenodd" clip-rule="evenodd" d="M513.205 657.989C535.587 598.231 431.332 478.682 494.423 469.114C570.712 457.545 590.188 589.355 650.785 637.125C665.955 649.085 692.7 626.201 708.24 637.675C726.361 651.055 712.306 699.752 734.824 699.176C796.156 697.607 843.467 629.816 904.754 632.647C950.057 634.74 995.554 670.541 1013.79 712.063C1030.95 751.126 999.394 795.123 994.758 837.537C989.982 881.236 1013.15 933.549 985.824 967.986C956.815 1004.55 901.257 1009.27 854.816 1013.93C815.106 1017.91 775.08 1007.59 737.995 992.839C709.181 981.381 689.681 955.133 663.844 937.987C648.88 928.056 634.24 907.782 616.906 912.482C562.722 927.171 524.009 1003.63 469.377 990.707C432.492 981.983 452.04 910.775 471.044 877.982C494.62 837.298 599.002 838.635 583.158 794.364C560.627 731.41 438.158 760.318 407.64 700.823C390.16 666.744 499.772 693.857 513.205 657.989Z" stroke="#18181b" stroke-width="4"/>
<path opacity="0.625" fill-rule="evenodd" clip-rule="evenodd" d="M518.159 679.027C545.664 621.447 452.225 493.266 515.91 489.234C592.917 484.358 600.831 617.364 657.033 670.234C671.103 683.47 699.741 663.004 714.222 675.789C731.108 690.697 712.863 737.984 735.345 739.373C796.58 743.155 849.62 679.745 910.427 687.907C955.375 693.94 997.579 733.571 1012.13 776.524C1025.82 816.935 990.546 858.013 982.231 899.862C973.665 942.978 992.18 997.111 961.961 1029.04C929.876 1062.93 874.118 1062.79 827.448 1063.38C787.542 1063.89 748.568 1050.12 712.909 1032.19C685.203 1018.27 668.066 990.421 643.821 971.088C629.78 959.891 616.962 938.419 599.285 941.589C544.027 951.5 498.797 1024.29 445.499 1006.66C409.516 994.754 435.195 925.52 456.985 894.508C484.017 856.034 587.885 866.464 575.96 820.98C559.001 756.301 434.479 774.426 409.263 712.497C394.819 677.025 501.651 713.587 518.159 679.027Z" stroke="#18181b" stroke-width="4"/>
<path opacity="0.666667" fill-rule="evenodd" clip-rule="evenodd" d="M520.806 700.833C553.224 645.869 471.313 510.033 535.107 511.566C612.246 513.42 608.538 646.61 659.918 704.177C672.781 718.589 703.093 700.697 716.405 714.695C731.927 731.018 709.63 776.535 731.906 779.878C792.579 788.983 850.943 730.438 910.807 743.868C955.058 753.796 993.647 796.954 1004.4 841.012C1014.52 882.462 975.795 920.309 963.865 961.274C951.573 1003.48 965.3 1059.02 932.414 1088.19C897.496 1119.16 841.963 1114.16 795.419 1110.68C755.62 1107.71 717.995 1090.59 684.034 1069.63C657.648 1053.34 643.002 1024.11 620.535 1002.74C607.523 990.357 596.625 967.849 578.739 969.467C522.828 974.524 471.426 1043.1 419.867 1020.89C385.059 1005.89 416.674 939.158 441.084 910.163C471.366 874.191 573.93 893.634 566.014 847.284C554.758 781.373 429.129 788.576 409.407 724.685C398.11 688.089 501.348 733.823 520.806 700.833Z" stroke="#18181b" stroke-width="4"/>
<path opacity="0.708333" fill-rule="evenodd" clip-rule="evenodd" d="M521.087 723.204C558.173 671.275 488.412 528.816 551.83 535.904C628.514 544.474 613.211 676.833 659.379 738.66C670.936 754.137 702.693 738.956 714.734 754.061C728.774 771.675 702.595 815.075 724.495 820.347C784.143 834.705 847.388 781.469 905.853 800.066C949.071 813.812 983.752 860.17 990.623 904.997C997.088 947.171 955.217 981.5 939.761 1021.27C923.838 1062.24 932.672 1118.77 897.368 1144.96C859.885 1172.77 804.998 1162.95 758.934 1155.43C719.546 1149 683.556 1128.67 651.552 1104.82C626.685 1086.3 614.643 1055.9 594.124 1032.65C582.24 1019.18 573.346 995.812 555.387 995.865C499.247 996.03 442.065 1059.86 392.638 1033.24C359.269 1015.27 396.58 951.546 423.424 924.789C456.727 891.593 557.206 919.901 553.36 873.038C547.89 806.396 422.112 802.622 408.033 737.256C399.969 699.814 498.828 754.373 521.087 723.204Z" stroke="#18181b" stroke-width="4"/>
<path opacity="0.75" fill-rule="evenodd" clip-rule="evenodd" d="M518.963 745.931C560.433 697.432 503.354 549.435 565.913 562.023C641.558 577.244 614.778 707.766 655.381 773.381C665.546 789.807 698.505 777.451 709.183 793.548C721.635 812.318 691.773 853.272 713.13 860.432C771.3 879.934 838.944 832.413 895.566 856.035C937.421 873.496 967.93 922.699 970.868 967.955C973.632 1010.53 928.928 1041.08 910.066 1079.35C890.632 1118.78 894.506 1175.86 857.054 1198.88C817.289 1223.32 763.467 1208.75 718.234 1197.24C679.556 1187.4 645.475 1164.01 615.671 1137.47C592.513 1116.85 583.167 1085.51 564.752 1060.56C554.087 1046.11 547.264 1022.06 529.368 1020.54C473.428 1015.82 410.899 1074.42 363.981 1043.59C332.305 1022.78 375.029 962.553 404.102 938.237C440.171 908.07 537.801 945.027 538.054 898.007C538.413 831.143 413.443 816.421 405.115 750.076C400.344 712.074 494.072 775.041 518.963 745.931Z" stroke="#18181b" stroke-width="4"/>
<path opacity="0.791667" fill-rule="evenodd" clip-rule="evenodd" d="M514.411 768.803C559.951 724.103 515.988 571.695 577.211 589.687C651.242 611.443 613.188 739.134 647.918 808.038C656.612 825.288 690.523 815.851 699.758 832.817C710.526 852.602 677.208 890.797 697.86 899.791C754.109 924.289 825.637 882.844 879.985 911.311C920.159 932.353 946.263 984.029 945.246 1029.37C944.289 1072.02 897.092 1098.56 874.966 1135.04C852.17 1172.63 851.054 1229.83 811.738 1249.49C769.995 1270.37 717.648 1251.17 673.59 1235.76C635.917 1222.59 604.004 1196.32 576.626 1167.28C555.354 1144.72 548.774 1112.69 532.604 1086.23C523.239 1070.91 518.538 1046.34 500.843 1043.28C445.527 1033.69 378.129 1086.63 334.076 1051.83C304.335 1028.33 352.145 972.056 383.227 950.366C421.788 923.458 515.825 968.784 520.175 921.964C526.361 855.386 403.149 829.828 400.635 763.01C399.194 724.737 487.078 795.633 514.411 768.803Z" stroke="#18181b" stroke-width="4"/>
<path opacity="0.833333" fill-rule="evenodd" clip-rule="evenodd" d="M507.429 791.608C556.691 751.047 526.178 595.387 585.6 618.647C657.453 646.772 608.415 770.661 637.008 842.329C644.166 860.271 678.769 853.826 686.49 871.533C695.494 892.181 658.973 927.326 678.763 938.086C732.662 967.393 807.53 932.341 859.191 965.436C897.378 989.899 918.879 1043.65 913.914 1088.73C909.243 1131.14 859.913 1153.46 834.692 1187.88C808.706 1223.33 802.609 1280.22 761.729 1296.38C718.325 1313.54 667.85 1289.85 625.303 1270.67C588.922 1254.26 559.42 1225.31 534.677 1193.99C515.452 1169.66 511.689 1137.18 497.887 1109.41C489.893 1093.33 487.351 1068.45 469.99 1063.86C415.72 1049.49 343.965 1096.34 303.113 1057.84C275.532 1031.84 328.065 979.945 360.919 961.047C401.679 937.602 491.407 990.951 499.821 944.689C511.787 878.903 391.271 842.704 394.59 775.921C396.491 737.668 477.861 815.954 507.429 791.608Z" stroke="#18181b" stroke-width="4"/>
<path opacity="0.875" fill-rule="evenodd" clip-rule="evenodd" d="M498.03 814.135C550.64 778.021 533.81 620.294 590.979 648.644C660.107 682.925 600.458 802.069 622.695 875.957C628.262 894.454 663.296 891.049 669.445 909.362C676.614 930.715 637.17 962.544 655.946 974.988C707.086 1008.88 784.724 980.487 833.304 1017.96C869.213 1045.66 885.947 1101.08 877.073 1145.55C868.723 1187.4 817.636 1205.33 789.511 1237.42C760.534 1270.48 749.502 1326.61 707.369 1339.15C662.634 1352.47 614.417 1324.47 573.703 1301.64C538.89 1282.13 512.024 1250.71 490.105 1217.36C473.074 1191.45 472.156 1158.76 460.826 1129.9C454.264 1113.18 453.9 1088.18 437.006 1082.08C384.195 1063.04 308.629 1103.46 271.289 1061.54C246.079 1033.24 302.934 986.122 337.311 970.159C379.958 950.356 464.696 1011.32 477.11 965.97C494.763 901.477 377.861 854.912 386.988 788.673C392.216 750.73 466.453 835.811 498.03 814.135Z" stroke="#18181b" stroke-width="4"/>
<path opacity="0.916667" fill-rule="evenodd" clip-rule="evenodd" d="M486.249 836.173C541.806 804.782 538.787 646.189 593.268 679.413C659.145 719.589 589.339 833.08 605.052 908.625C608.986 927.537 644.183 927.199 648.712 945.977C653.993 967.875 611.925 996.145 629.545 1010.18C677.536 1048.4 757.354 1026.88 802.482 1068.44C835.841 1099.17 847.681 1155.84 834.964 1199.37C823 1240.32 770.543 1253.74 739.729 1283.25C707.981 1313.66 692.099 1368.62 649.033 1377.44C603.308 1386.8 557.715 1354.71 519.145 1328.42C486.166 1305.95 462.14 1272.31 443.21 1237.17C428.503 1209.88 430.437 1177.23 421.666 1147.49C416.586 1130.27 418.403 1105.33 402.104 1097.78C351.154 1074.21 272.352 1107.89 238.808 1062.88C216.16 1032.49 276.906 990.502 312.543 977.596C356.754 961.585 435.856 1029.71 452.175 985.607C475.382 922.898 362.984 866.322 377.849 801.13C386.363 763.788 452.903 855.014 486.249 836.173Z" stroke="#18181b" stroke-width="4"/>
<path opacity="0.958333" fill-rule="evenodd" clip-rule="evenodd" d="M472.138 857.518C530.219 831.088 541.034 672.835 592.411 710.682C654.537 756.446 575.105 863.421 584.174 940.048C586.444 959.231 621.537 961.962 624.412 981.064C627.765 1003.34 583.392 1027.83 599.722 1043.35C644.2 1085.61 725.589 1071.13 766.924 1116.46C797.478 1149.98 804.334 1207.47 787.871 1249.72C772.383 1289.48 718.956 1298.27 685.688 1324.99C651.411 1352.51 630.798 1405.88 587.128 1410.91C540.761 1416.25 498.138 1380.31 462.006 1350.76C431.111 1325.5 410.108 1289.89 394.313 1253.24C382.04 1224.77 386.812 1192.42 380.667 1162.02C377.108 1144.42 381.091 1119.73 365.511 1110.8C316.811 1082.87 235.373 1109.56 205.879 1061.79C185.967 1029.54 250.14 993.014 286.767 983.263C332.205 971.167 405.069 1045.92 425.169 1003.41C453.753 942.966 346.714 876.808 367.204 813.16C378.941 776.702 437.276 873.381 472.138 857.518Z" stroke="#18181b" stroke-width="4"/>
<path fill-rule="evenodd" clip-rule="evenodd" d="M455.764 877.968C515.929 856.701 540.495 699.993 588.378 742.173C646.278 793.178 557.825 892.823 560.181 969.949C560.771 989.257 595.492 995.035 596.692 1014.32C598.09 1036.8 551.752 1057.33 566.667 1074.21C607.293 1120.19 689.635 1112.85 726.86 1161.62C754.377 1197.67 756.197 1255.54 736.114 1296.2C717.219 1334.45 663.23 1338.56 627.759 1362.27C591.214 1386.7 566.029 1438.07 522.086 1439.28C475.43 1440.56 436.102 1401.03 402.683 1368.45C374.107 1340.59 356.287 1303.29 343.746 1265.4C334.002 1235.97 341.576 1204.16 338.103 1173.34C336.091 1155.5 342.211 1131.25 327.469 1120.99C281.388 1088.93 197.933 1108.42 172.715 1058.26C155.69 1024.4 222.803 993.6 260.139 987.079C306.459 978.988 372.53 1059.81 396.26 1019.21C430.003 961.488 329.137 886.254 355.096 824.633C369.966 789.337 419.653 890.732 455.764 877.968Z" stroke="#18181b" stroke-width="4"/>
</svg>
