<svg width="12" height="12" viewBox="0 0 12 12" fill="none" xmlns="http://www.w3.org/2000/svg">
<path d="M0 8V0.92H0.36V8H0ZM1.08 8V0.92H1.44V8H1.08ZM2.16 8V0.92H3.6V8H2.16ZM2.364 9.74C2.58 9.74 2.76 9.816 2.904 9.968L2.76 10.208L2.748 10.256L2.712 10.232C2.704 10.2 2.696 10.176 2.688 10.16C2.672 10.136 2.644 10.112 2.604 10.088C2.532 10.04 2.444 10.016 2.34 10.016C2.236 10.016 2.136 10.044 2.04 10.1C1.944 10.148 1.868 10.228 1.812 10.34C1.748 10.452 1.716 10.588 1.716 10.748V11.828H1.392V9.788H1.728L1.716 10.16C1.772 10.032 1.86 9.928 1.98 9.848C2.1 9.776 2.228 9.74 2.364 9.74ZM3.96094 8V0.92H4.32094V8H3.96094ZM5.04094 8V0.92H5.40094V8H5.04094ZM5.76094 8V0.92H6.48094V8H5.76094ZM5.91694 9.74C6.20494 9.74 6.42494 9.816 6.57694 9.968C6.72894 10.12 6.80494 10.38 6.80494 10.748V11.828H6.45694V11.516C6.33694 11.756 6.10494 11.876 5.76094 11.876C5.53694 11.876 5.36094 11.824 5.23294 11.72C5.10494 11.616 5.04094 11.48 5.04094 11.312C5.04094 11.168 5.08894 11.044 5.18494 10.94C5.27294 10.836 5.39694 10.752 5.55694 10.688C5.70894 10.632 5.88094 10.604 6.07294 10.604C6.24094 10.604 6.39294 10.612 6.52894 10.628C6.51294 10.404 6.45294 10.244 6.34894 10.148C6.24494 10.052 6.09294 10.004 5.89294 10.004C5.78894 10.004 5.69294 10.024 5.60494 10.064C5.50894 10.104 5.42094 10.16 5.34094 10.232L5.18494 10.028C5.37694 9.836 5.62094 9.74 5.91694 9.74ZM5.79694 11.636C6.02094 11.636 6.19694 11.568 6.32494 11.432C6.45294 11.304 6.52094 11.12 6.52894 10.88C6.39294 10.856 6.24894 10.844 6.09694 10.844C5.87294 10.844 5.69294 10.884 5.55694 10.964C5.42894 11.036 5.36494 11.148 5.36494 11.3C5.36494 11.524 5.50894 11.636 5.79694 11.636ZM7.92188 8V0.92H9.36188V8H7.92188ZM10.0819 8V0.92H10.4419V8H10.0819ZM10.8019 8V0.92H11.1619V8H10.8019ZM8.85788 9.788H9.13388L9.46988 11.432L9.81788 9.98H10.0099L10.4419 11.42C10.5299 10.868 10.5819 10.504 10.5979 10.328C10.6219 10.152 10.6339 9.996 10.6339 9.86V9.788H10.9339C10.8459 10.476 10.7339 11.156 10.5979 11.828H10.2859L9.91388 10.508L9.55388 11.828H9.26588L8.85788 9.788Z" fill="#18181b"/>
</svg>
